<svg width="69" height="69" viewBox="0 0 69 69" fill="none" xmlns="http://www.w3.org/2000/svg">
<circle cx="34.5" cy="34.5" r="31.5" fill="#FA3030"/>
<path d="M34.5 0C53.5538 0 69 15.4462 69 34.5C69 53.5538 53.5538 69 34.5 69C15.4462 69 0 53.5538 0 34.5C0 15.4462 15.4462 0 34.5 0ZM50.4033 22.79C48.7256 22.7669 47.1862 23.2161 45.8193 23.3691C44.3895 23.4906 43.2083 24.9329 41.7051 25.6318C40.227 26.3115 38.6241 26.918 37.2168 27.668C36.9286 27.8566 36.6771 28.0204 36.3135 28.3516C34.3834 30.1596 34.507 32.0316 34.2715 32.9424C34.0143 34.0561 32.8558 34.6587 31.752 34.3701C30.5021 34.0428 28.7593 33.3024 27.6543 33.4668C24.5383 33.9308 22.4222 36.705 19.748 37.0615C18.8014 37.1924 17.8649 37.2223 16.7939 36.9287C16.1195 36.7448 15.03 36.3471 13.1621 36.8516C12.2494 37.1086 10.9266 37.8453 9.93848 39.3008C8.63851 40.926 6.89039 42.7155 7.89551 45.0078C8.10097 45.4507 8.61899 46.1184 9.51367 46.2061C10.7411 46.2811 11.5165 45.4833 11.9395 44.9277C12.5094 44.1787 12.8034 43.1727 13.54 42.6182C14.5206 41.8817 15.9812 42.141 16.7744 41.8389C17.7164 41.5115 18.2179 40.2715 18.8877 40.0674C20.1931 39.6708 21.718 39.7672 23.0781 39.5459C24.5863 39.3023 26.0152 38.9641 27.5215 38.7744C28.1459 38.6955 28.6416 38.6741 29.251 38.7578C30.1706 38.885 32.7347 39.4557 33.9648 39.2295C35.3708 38.9657 36.0651 38.5715 37.1143 37.6543C38.1523 36.6742 40.4312 32.6161 43.0811 32.7295C43.6123 32.7517 44.6869 32.6893 45.2012 32.6143C47.052 32.3447 49.3857 31.791 50.583 33.1875C51.0597 33.7084 51.08 34.428 51.0518 34.7207C50.9158 36.675 47.3281 38.0694 47.3281 39.499C47.3289 41.1201 51.7386 42.3292 53.1816 42.873C53.2061 42.8839 55.3076 43.8188 56.7441 44.0342C58.033 44.2277 60.6985 44.423 61.2295 43.2822C61.3069 43.1156 61.525 42.6496 61.3154 42.1846C61.2306 41.9968 61.0401 41.7056 60.8311 41.6094L60.832 41.6104C60.4805 41.4496 59.8992 41.1748 59.3545 40.8359C58.3932 40.2189 57.5197 38.9934 57.1562 37.5254C56.7662 35.9514 57.2079 34.4588 57.6797 33.292C57.7334 33.161 57.7923 33.0324 57.8623 32.9092C58.9306 31.0146 58.8317 30.0756 57.75 29.0869C56.7243 28.1504 54.3429 28.3572 52.8027 28.6777C52.0246 28.8732 47.2584 29.4614 46.8223 28.3359C46.5117 27.4476 47.865 27.5364 48.7861 27.2842C49.7593 26.952 51.9317 26.1172 52.0459 24.9746C52.126 24.2044 50.9704 22.9181 50.4033 22.79Z" fill="white"/>
</svg>
