<svg width="611" height="611" viewBox="0 0 611 611" fill="none" xmlns="http://www.w3.org/2000/svg">
<path d="M282.709 91.4584C321.905 88.913 310.819 117.998 329.799 120.489C375.24 126.036 423.418 88.3465 467.155 94.8902C495.313 99.1035 517.049 130.224 507.866 158.839C490.608 212.618 442.419 195.435 400.217 194.06C383.399 193.512 363.521 204.754 347.129 208.36C319.142 212.806 290.938 209.525 282.017 244.096C281.051 247.843 281.149 255.777 284.062 258.48C323.316 294.676 387.902 247.449 434.572 258.184C480.869 268.835 489.758 310.177 481.06 351.401C463.776 433.32 368.203 504.436 285.125 485.04C253.81 475.684 239.881 474.576 212.177 489.838C207.094 491.856 185.35 494.664 182.1 498.304C161.922 520.895 116.326 531.908 103.097 496.59C97.1976 480.837 116.411 448.454 129.198 435.253C148.013 415.833 150.804 374.91 181.614 369.102C234.425 361.656 251.784 433.492 313.341 412.527C328.022 409.547 353.981 394.568 360.154 379.925C388.614 312.408 306.421 326.64 271.276 339.378C248.979 346.687 221.535 343.516 202.507 330.765C145.84 292.786 177.976 252.233 199.742 207.56C206.056 194.602 195.174 169.264 209.682 149.622C228.284 124.439 251.354 98.3234 282.709 91.4584Z" fill="black"/>
</svg>
